<svg xmlns="http://www.w3.org/2000/svg" version="1.1" viewBox="9.94 20.61 82.48 55.39">
<path d="M0 0 C3.62168388 1.8426111 6.29158262 3.99064735 9 7 C9.845625 6.67 10.69125 6.34 11.5625 6 C16.54872952 4.5494605 20.28889104 4.36252804 25.1875 6.1875 C29.22593343 8.79004599 31.48039779 11.44119336 33 16 C34.73912655 16.83824695 34.73912655 16.83824695 36.8125 17.375 C40.85877011 18.79882216 42.9460611 20.06328377 45 24 C45.84315483 28.75152877 45.4444767 32.09458449 43.3125 36.4375 C40.19066414 39.89683163 37.63590046 40.85739468 33.00941467 41.26069641 C31.90166183 41.2653038 30.793909 41.26991119 29.65258789 41.2746582 C28.39100357 41.28419022 27.12941925 41.29372223 25.8296051 41.30354309 C24.46062187 41.30328164 23.09163862 41.3023445 21.72265625 41.30078125 C20.30927912 41.30467166 18.89590316 41.30900704 17.48252869 41.31376648 C14.52452804 41.32121479 11.56664679 41.3209475 8.60864258 41.31567383 C4.82804432 41.3098802 1.04793613 41.32681384 -2.73258114 41.3500185 C-5.65034313 41.36478824 -8.56798796 41.36562318 -11.48578072 41.36250877 C-12.87916599 41.36302033 -14.2725581 41.36822698 -15.66590691 41.37832069 C-17.61829732 41.39072966 -19.57078719 41.38193 -21.52319336 41.37231445 C-23.18601601 41.37325859 -23.18601601 41.37325859 -24.88243103 41.3742218 C-28.50108247 40.93985186 -30.89106035 39.87797314 -34 38 C-36.60344608 34.47275047 -37.23531253 31.72304031 -37 27.4375 C-36.47031553 24.06004956 -35.91052948 22.87729757 -33.8125 20 C-30.75028844 17.82242734 -28.71490235 17.25917923 -25 17 C-24.773125 15.80375 -24.54625 14.6075 -24.3125 13.375 C-22.88035941 7.71654241 -20.18127343 4.59605373 -15.4375 1.125 C-10.27681428 -0.56395169 -5.37534712 -0.67837028 0 0 Z " fill="#9E9EC7" transform="translate(47,21)"/>
<path d="M0 0 C3.62168388 1.8426111 6.29158262 3.99064735 9 7 C9.845625 6.67 10.69125 6.34 11.5625 6 C16.54872952 4.5494605 20.28889104 4.36252804 25.1875 6.1875 C29.22593343 8.79004599 31.48039779 11.44119336 33 16 C34.73912655 16.83824695 34.73912655 16.83824695 36.8125 17.375 C40.85877011 18.79882216 42.9460611 20.06328377 45 24 C45.84315483 28.75152877 45.4444767 32.09458449 43.3125 36.4375 C40.89749777 39.11358355 39.45701162 40.11358676 36 41 C35.01 41 34.02 41 33 41 C33 40.01 33 39.02 33 38 C34.11375 37.5875 35.2275 37.175 36.375 36.75 C38.66588919 35.74831566 39.85502985 35.16913184 41.5 33.25 C42.37559147 29.3098384 41.96466824 25.6077804 39.875 22.125 C37.8718913 20.72464738 37.8718913 20.72464738 34.5625 20.8125 C31 20 31 20 29.796875 18.26953125 C29.13885303 16.83598339 28.49823094 15.39432443 27.875 13.9453125 C26.65913603 11.24218635 25.73930202 10.18456303 23 9 C18.76473398 8.45199885 15.26345287 8.22249054 11.5625 10.5 C11.046875 10.995 10.53125 11.49 10 12 C9.34 12 8.68 12 8 12 C7.443125 11.071875 6.88625 10.14375 6.3125 9.1875 C3.48963436 5.29652304 1.57326258 4.37197878 -3 3 C-7.23818664 2.3359901 -10.34746109 2.67373055 -14.25 4.625 C-19.3758944 9.0519088 -21.46140423 13.58918429 -23 20 C-24.093125 20.0825 -25.18625 20.165 -26.3125 20.25 C-29.91832218 20.68897612 -29.91832218 20.68897612 -31.9375 22.5625 C-33.47326309 26.08572121 -33.69846164 29.22054647 -33 33 C-30.95374685 35.955699 -29.71015935 36.80632018 -26.25 37.75 C-25.5075 37.8325 -24.765 37.915 -24 38 C-24 38.99 -24 39.98 -24 41 C-28.05775837 40.76130833 -30.507149 40.34285287 -33.875 38 C-36.68023452 34.03966891 -37.28858337 30.81255212 -37 26 C-35.74417806 22.23253417 -34.70131219 20.53947091 -31.5625 18.125 C-29 17 -29 17 -25 17 C-24.773125 15.80375 -24.54625 14.6075 -24.3125 13.375 C-22.88035941 7.71654241 -20.18127343 4.59605373 -15.4375 1.125 C-10.27681428 -0.56395169 -5.37534712 -0.67837028 0 0 Z " fill="#232631" transform="translate(47,21)"/>
<path d="M0 0 C16.5 0 33 0 50 0 C50 0.99 50 1.98 50 3 C33.5 3 17 3 0 3 C0 2.01 0 1.02 0 0 Z " fill="#1E212A" transform="translate(28,63)"/>
<path d="M0 0 C13.2 0 26.4 0 40 0 C40 0.99 40 1.98 40 3 C26.8 3 13.6 3 0 3 C0 2.01 0 1.02 0 0 Z " fill="#1E212A" transform="translate(24,73)"/>
<path d="M0 0 C11.22 0 22.44 0 34 0 C34 0.66 34 1.32 34 2 C23.11 2 12.22 2 1 2 C0.67 1.34 0.34 0.68 0 0 Z " fill="#1D202A" transform="translate(36,69)"/>
<path d="M0 0 C0.66 0.33 1.32 0.66 2 1 C1.34 3.31 0.68 5.62 0 8 C-1.670625 8.2165625 -1.670625 8.2165625 -3.375 8.4375 C-6.82142047 8.78372035 -6.82142047 8.78372035 -9 10 C-8.3125 8.0625 -8.3125 8.0625 -7 6 C-6.175 5.855625 -5.35 5.71125 -4.5 5.5625 C-3.675 5.376875 -2.85 5.19125 -2 5 C-0.62533375 2.52363988 -0.62533375 2.52363988 0 0 Z " fill="#282A37" transform="translate(24,33)"/>
</svg>