<svg xmlns="http://www.w3.org/2000/svg" height="24px" viewBox="0 -960 960 960" width="24px" fill="#EFEFEF"><path d="M622.5-257.5Q640-275 640-300t-17.5-42.5Q605-360 580-360t-42.5 17.5Q520-325 520-300t17.5 42.5Q555-240 580-240t42.5-17.5ZM378-242l260-260-56-56-260 260 56 56Zm44.5-215.5Q440-475 440-500t-17.5-42.5Q405-560 380-560t-42.5 17.5Q320-525 320-500t17.5 42.5Q355-440 380-440t42.5-17.5ZM251.5-174Q160-268 160-408q0-100 79.5-217.5T480-880q161 137 240.5 254.5T800-408q0 140-91.5 234T480-80q-137 0-228.5-94ZM652-230.5Q720-301 720-408q0-73-60.5-165T480-774Q361-665 300.5-573T240-408q0 107 68 177.5T480-160q104 0 172-70.5ZM480-480Z"/></svg>